<svg width="115" height="31" viewBox="0 0 115 31" fill="none" xmlns="http://www.w3.org/2000/svg">
<path d="M23.699 22.7158H25.3372V29.8146H24.2451L19.8766 25.0093V29.8146H18.2384V22.7158H19.5489L23.699 27.0843V22.7158Z" fill="#00723D"/>
<path d="M29.8149 22.7158H28.2859V29.8146H29.8149V22.7158Z" fill="#00723D"/>
<path d="M39.207 24.4632C38.661 24.0264 37.7873 23.8079 37.0228 23.8079C35.1662 23.8079 34.0741 24.9001 34.0741 26.429C34.0741 27.6304 34.8386 28.8317 37.0228 28.8317C37.6781 28.8317 38.2241 28.7225 38.8794 28.2856V27.0843H36.6952V25.883H40.2992V28.8317C39.4255 29.5962 38.4426 30.1422 36.9136 30.1422C33.7465 30.1422 32.4359 28.3948 32.4359 26.5382C32.4359 24.5724 33.9649 22.7158 36.9136 22.7158C38.0057 22.7158 39.207 23.0435 40.0807 23.8079L39.207 24.4632Z" fill="#00723D"/>
<path d="M49.473 29.8146H43.1387V22.7158H49.473V24.0264H44.7768V25.6645H49.3637V26.8659H44.7768V28.504H49.473V29.8146Z" fill="#00723D"/>
<path d="M59.7389 29.8146H57.8823L55.3704 27.4119H53.8414V29.8146H52.2032V22.7158C53.5138 22.7158 54.9335 22.7158 56.2441 22.7158C58.2099 22.7158 59.302 23.8079 59.302 25.0093C59.302 25.9922 58.756 26.9751 57.1178 27.1935L59.7389 29.8146ZM53.8414 23.9171V26.2106H56.2441C57.227 26.2106 57.6638 25.6645 57.6638 25.1185C57.6638 24.5724 57.227 24.0264 56.2441 24.0264H53.8414V23.9171Z" fill="#00723D"/>
<path d="M63.4521 22.7158H61.9231V29.8146H63.4521V22.7158Z" fill="#00723D"/>
<path d="M72.5166 28.3952H68.1481L67.3836 29.7057H65.6362L69.4586 22.6069H71.206L75.0284 29.7057H73.2811L72.5166 28.3952ZM70.3323 24.2451L68.8034 27.1938H71.9705L70.3323 24.2451Z" fill="#00723D"/>
<path d="M77.1036 29.1595C77.1036 30.1424 75.5746 30.1424 75.5746 29.1595C75.5746 28.1766 77.1036 28.1766 77.1036 29.1595Z" fill="#F48120"/>
<path d="M82.3456 29.1595C81.7996 29.7055 81.1443 29.924 80.3798 29.924C78.9601 29.924 77.6495 29.0503 77.6495 27.1937C77.6495 25.3371 78.8509 24.4634 80.3798 24.4634C81.1443 24.4634 81.6904 24.6818 82.2364 25.2279L81.4719 26.1016C81.1443 25.8831 80.8167 25.6647 80.489 25.6647C79.6153 25.6647 79.0693 26.32 79.0693 27.1937C79.0693 28.1766 79.7246 28.7226 80.489 28.7226C80.9259 28.7226 81.2535 28.6134 81.5812 28.2858L82.3456 29.1595Z" fill="#FF8300"/>
<path d="M87.9155 27.3028C87.9155 28.7225 86.9326 29.9239 85.2944 29.9239C83.6562 29.9239 82.6733 28.7225 82.6733 27.3028C82.6733 25.883 83.6562 24.6817 85.2944 24.6817C86.9326 24.5725 87.9155 25.7738 87.9155 27.3028ZM83.9839 27.3028C83.9839 28.0673 84.4207 28.8317 85.4036 28.8317C86.2773 28.8317 86.8234 28.0673 86.8234 27.3028C86.8234 26.5383 86.2773 25.7738 85.4036 25.7738C84.4207 25.7738 83.9839 26.5383 83.9839 27.3028Z" fill="#FF8300"/>
<path d="M92.1748 29.8146V27.0843C92.1748 26.429 91.8472 25.7738 91.1919 25.7738C90.5366 25.7738 90.0998 26.429 90.0998 27.0843V29.8146H88.8984V24.6816H90.0998L90.209 25.3369C90.4274 24.7909 91.0827 24.6816 91.5195 24.6816C92.1748 24.6816 92.7209 24.9001 93.0485 25.6645C93.4853 24.9001 94.0314 24.6816 94.6867 24.6816C96.1064 24.6816 96.8709 25.5553 96.8709 27.0843V29.8146H95.6696V27.0843C95.6696 26.429 95.3419 25.883 94.6867 25.883C94.0314 25.883 93.5945 26.429 93.5945 27.1935V29.9238H92.1748V29.8146Z" fill="#FF8300"/>
<path fill-rule="evenodd" clip-rule="evenodd" d="M39.6439 2.29346C36.3675 2.29346 33.528 3.93164 31.8898 6.55272C30.2516 4.04085 27.4121 2.40267 24.245 2.40267C19.2213 2.40267 15.1804 6.3343 15.1804 11.1396C15.1804 15.9449 19.2213 19.8766 24.245 19.8766C29.2687 19.8766 33.3096 15.9449 33.3096 11.1396C33.3096 10.9212 33.3096 10.812 33.3096 10.5936C33.528 7.42641 36.3675 4.91454 39.6439 4.91454C43.1386 4.91454 46.0873 7.75405 46.0873 11.1396V19.9858H47.7255V11.1396C47.7255 10.1567 47.8347 9.1738 48.1624 8.30011C46.961 4.80533 43.5755 2.29346 39.6439 2.29346ZM24.245 17.3647C20.7502 17.3647 17.8015 14.5252 17.8015 11.1396C17.8015 7.75405 20.641 4.91454 24.245 4.91454C27.6306 4.91454 30.3609 7.42641 30.5793 10.5936C30.5793 10.812 30.5793 10.9212 30.5793 11.1396H30.6885C30.6885 14.6344 27.849 17.3647 24.245 17.3647Z" fill="#87C121"/>
<path fill-rule="evenodd" clip-rule="evenodd" d="M14.7436 13.9793C13.6515 15.9451 11.5764 17.3648 9.06458 17.3648C5.5698 17.3648 2.62108 14.5253 2.62108 11.1398C2.62108 7.75421 5.46059 4.9147 9.06458 4.9147C11.5764 4.9147 13.6515 6.33446 14.7436 8.30027C15.0712 7.31736 15.5081 6.44367 16.0541 5.67919C14.416 3.71337 11.9041 2.40283 9.06458 2.40283C4.04083 2.40283 0 6.33446 0 11.1398C0 15.9451 4.04083 19.8767 9.06458 19.8767C11.9041 19.8767 14.416 18.5662 16.0541 16.6004C15.5081 15.8359 15.0712 14.9622 14.7436 13.9793Z" fill="#87C121"/>
<path fill-rule="evenodd" clip-rule="evenodd" d="M65.9639 11.1396C65.9639 10.2659 66.0731 9.39222 66.2915 8.51853C65.1994 4.91454 61.7047 2.29346 57.6638 2.29346C52.6401 2.29346 48.5992 6.22508 48.5992 11.0304V19.8766H51.2203V11.0304C51.2203 7.64484 54.0598 4.80533 57.6638 4.80533C61.1586 4.80533 64.1073 7.53563 64.1073 11.0304V19.8766H66.7284V14.8528C66.2915 13.7607 65.9639 12.4502 65.9639 11.1396Z" fill="#87C121"/>
<path fill-rule="evenodd" clip-rule="evenodd" d="M96.3247 13.6513C95.3418 15.8356 93.0484 17.4737 90.4273 17.4737C86.9325 17.4737 83.9838 14.6342 83.9838 11.2487C83.9838 7.8631 86.8233 5.02359 90.4273 5.02359C92.83 5.02359 94.905 6.33413 95.9971 8.19073V4.36832C94.4681 3.16699 92.5023 2.51172 90.4273 2.51172C87.4786 2.51172 84.8575 3.93147 83.2193 6.0065C81.5811 3.82226 78.9601 2.51172 76.0113 2.51172C70.9876 2.51172 66.9468 6.44334 66.9468 11.2487C66.9468 16.054 70.9876 19.9856 76.0113 19.9856C78.6324 19.9856 81.0351 18.8935 82.6733 17.1461C82.1272 16.3816 81.5812 15.6171 81.2535 14.7434C80.0522 16.3816 78.1956 17.3645 76.0113 17.3645C72.9534 17.3645 70.3323 15.1803 69.6771 12.3408H81.4719C82.1272 16.6 85.8404 19.8764 90.4273 19.8764C93.376 19.8764 95.9971 18.4566 97.6353 16.3816C97.0892 15.6171 96.5432 14.6342 96.3247 13.6513ZM75.9021 4.91438C78.5232 4.91438 80.7075 6.44334 81.6904 8.62758C81.5812 9.06442 81.4719 9.39206 81.3627 9.8289H69.5679C70.3323 6.9894 72.8442 4.91438 75.9021 4.91438Z" fill="#87C121"/>
<path fill-rule="evenodd" clip-rule="evenodd" d="M112.379 11.1396C112.379 14.5252 109.539 17.3647 105.935 17.3647C102.441 17.3647 99.4919 14.6344 99.4919 11.1396V4.91453H112.27V2.40266H99.4919V0H96.8708V11.2488C96.8708 16.0541 100.912 19.9858 105.935 19.9858C110.959 19.9858 115 16.0541 115 11.2488H112.379V11.1396Z" fill="#87C121"/>
<path d="M12.2632 10.9031C12.2632 12.9087 10.6372 14.5346 8.63158 14.5346C6.62591 14.5346 5 12.9087 5 10.9031C5 8.8974 6.62591 7.27148 8.63158 7.27148C10.6372 7.27148 12.2632 8.8974 12.2632 10.9031Z" fill="#FF8300"/>
</svg>
